<?xml version="1.0" encoding="UTF-8"?>
<svg xmlns="http://www.w3.org/2000/svg" xmlns:xlink="http://www.w3.org/1999/xlink" viewBox="0 0 64 64" width="64px" height="64px">
<defs>
<radialGradient id="radial0" gradientUnits="userSpaceOnUse" cx="86" cy="90.03125" fx="86" fy="90.03125" r="84.00856" gradientTransform="matrix(0.372093,0,0,0.372093,0,0)">
<stop offset="0" style="stop-color:rgb(61.176473%,93.333334%,100%);stop-opacity:1;"/>
<stop offset="0.642" style="stop-color:rgb(77.254903%,96.078432%,100%);stop-opacity:1;"/>
<stop offset="1" style="stop-color:rgb(86.274511%,97.647059%,100%);stop-opacity:1;"/>
</radialGradient>
<linearGradient id="linear0" gradientUnits="userSpaceOnUse" x1="86" y1="182.408691" x2="86" y2="-14.921" gradientTransform="matrix(0.372093,0,0,0.372093,0,0)">
<stop offset="0" style="stop-color:rgb(0%,36.078432%,88.627452%);stop-opacity:1;"/>
<stop offset="0.278" style="stop-color:rgb(0%,50.196081%,90.980393%);stop-opacity:1;"/>
<stop offset="0.569" style="stop-color:rgb(0%,61.176473%,92.941177%);stop-opacity:1;"/>
<stop offset="0.82" style="stop-color:rgb(0%,69.01961%,94.509804%);stop-opacity:1;"/>
<stop offset="1" style="stop-color:rgb(0%,70.980394%,94.901961%);stop-opacity:1;"/>
</linearGradient>
<linearGradient id="linear1" gradientUnits="userSpaceOnUse" x1="126.307129" y1="163.641876" x2="126.307129" y2="5.60613" gradientTransform="matrix(0.372093,0,0,0.372093,0,0)">
<stop offset="0" style="stop-color:rgb(0%,36.078432%,88.627452%);stop-opacity:1;"/>
<stop offset="0.278" style="stop-color:rgb(0%,50.196081%,90.980393%);stop-opacity:1;"/>
<stop offset="0.569" style="stop-color:rgb(0%,61.176473%,92.941177%);stop-opacity:1;"/>
<stop offset="0.82" style="stop-color:rgb(0%,69.01961%,94.509804%);stop-opacity:1;"/>
<stop offset="1" style="stop-color:rgb(0%,70.980394%,94.901961%);stop-opacity:1;"/>
</linearGradient>
<linearGradient id="linear2" gradientUnits="userSpaceOnUse" x1="42.997311" y1="192.250305" x2="42.997311" y2="19.495131" gradientTransform="matrix(0.372093,0,0,0.372093,0,0)">
<stop offset="0" style="stop-color:rgb(0%,36.078432%,88.627452%);stop-opacity:1;"/>
<stop offset="0.278" style="stop-color:rgb(0%,50.196081%,90.980393%);stop-opacity:1;"/>
<stop offset="0.569" style="stop-color:rgb(0%,61.176473%,92.941177%);stop-opacity:1;"/>
<stop offset="0.82" style="stop-color:rgb(0%,69.01961%,94.509804%);stop-opacity:1;"/>
<stop offset="1" style="stop-color:rgb(0%,70.980394%,94.901961%);stop-opacity:1;"/>
</linearGradient>
<linearGradient id="linear3" gradientUnits="userSpaceOnUse" x1="108.84375" y1="28.45256" x2="108.84375" y2="101.832062" >
<stop offset="0" style="stop-color:rgb(100%,100%,100%);stop-opacity:1;"/>
<stop offset="0.612" style="stop-color:rgb(100%,80.392158%,28.627452%);stop-opacity:1;"/>
<stop offset="1" style="stop-color:rgb(100%,87.058824%,26.666668%);stop-opacity:1;"/>
</linearGradient>
<linearGradient id="linear4" gradientUnits="userSpaceOnUse" x1="80.625" y1="61.8125" x2="80.625" y2="200.21875" gradientTransform="matrix(0.372093,0,0,0.372093,0,0)">
<stop offset="0" style="stop-color:rgb(100%,100%,100%);stop-opacity:1;"/>
<stop offset="0.088" style="stop-color:rgb(97.254902%,99.215686%,100%);stop-opacity:1;"/>
<stop offset="0.216" style="stop-color:rgb(89.803922%,96.862745%,99.607843%);stop-opacity:1;"/>
<stop offset="0.369" style="stop-color:rgb(77.254903%,93.333334%,98.823529%);stop-opacity:1;"/>
<stop offset="0.541" style="stop-color:rgb(59.607846%,87.843138%,98.039216%);stop-opacity:1;"/>
<stop offset="0.728" style="stop-color:rgb(37.64706%,81.176472%,96.862745%);stop-opacity:1;"/>
<stop offset="0.926" style="stop-color:rgb(10.588235%,73.333335%,95.294118%);stop-opacity:1;"/>
<stop offset="1" style="stop-color:rgb(0%,70.19608%,94.901961%);stop-opacity:1;"/>
</linearGradient>
</defs>
<g id="surface26094595">
<path style=" stroke:none;fill-rule:nonzero;fill:url(#radial0);" d="M 59.308594 42 L 45 42 L 45 34 L 59.300781 34 C 61.195312 34 62.894531 32.582031 62.996094 30.6875 C 63.101562 28.671875 61.496094 27 59.5 27 L 45 27 L 45 22 L 59.828125 22 C 61.917969 22 63.78125 20.472656 63.980469 18.394531 C 64.210938 16.007812 62.339844 14 60 14 L 45 14 L 45 10 L 54.300781 10 C 56.195312 10 57.894531 8.582031 57.996094 6.6875 C 58.101562 4.671875 56.496094 3 54.5 3 L 9.699219 3 C 7.804688 3 6.105469 4.417969 6.003906 6.3125 C 5.898438 8.328125 7.503906 10 9.5 10 L 19 10 L 19 14 L 4.171875 14 C 2.082031 14 0.21875 15.527344 0.0195312 17.605469 C -0.210938 19.992188 1.660156 22 4 22 L 19 22 L 19 27 L 4.699219 27 C 2.804688 27 1.105469 28.417969 1.003906 30.3125 C 0.898438 32.328125 2.503906 34 4.5 34 L 19 34 L 19 40 L 4.691406 40 C 2.34375 40 0.242188 41.71875 0.0195312 44.058594 C -0.234375 46.742188 1.867188 49 4.5 49 L 14.5 49 C 16.984375 49 19 51.015625 19 53.5 L 19 54.5 C 19 56.433594 17.433594 58 15.5 58 L 12.109375 58 C 10.660156 58 9.328125 58.980469 9.058594 60.40625 C 8.6875 62.324219 10.148438 64 12 64 L 51.890625 64 C 53.339844 64 54.671875 63.019531 54.941406 61.59375 C 55.3125 59.675781 53.851562 58 52 58 L 48.5 58 C 46.566406 58 45 56.433594 45 54.5 C 45 52.566406 46.566406 51 48.5 51 L 59.5 51 C 62.132812 51 64.234375 48.742188 63.980469 46.058594 C 63.757812 43.71875 61.65625 42 59.308594 42 Z M 59.308594 42 "/>
<path style=" stroke:none;fill-rule:nonzero;fill:url(#linear0);" d="M 18 8 L 46 8 C 51.523438 8 56 12.476562 56 18 L 56 46 C 56 51.523438 51.523438 56 46 56 L 18 56 C 12.476562 56 8 51.523438 8 46 L 8 18 C 8 12.476562 12.476562 8 18 8 Z M 18 8 "/>
<path style=" stroke:none;fill-rule:nonzero;fill:url(#linear1);" d="M 56 44 L 56 46 C 56 51.523438 51.523438 56 46 56 L 40.5 56 C 39.035156 56 37.867188 54.746094 38.007812 53.25 C 38.132812 51.945312 39.328125 51 40.640625 51 L 47.5 51 C 48.328125 51 49 50.328125 49 49.5 C 49 48.671875 48.328125 48 47.5 48 C 46.394531 48 45.5 47.105469 45.5 46 C 45.5 44.894531 46.394531 44 47.5 44 Z M 56 44 "/>
<path style=" stroke:none;fill-rule:nonzero;fill:url(#linear2);" d="M 21 14 L 16 14 C 15.449219 14 14.949219 14.21875 14.589844 14.589844 C 14.21875 14.949219 14 15.449219 14 16 C 14 17.101562 14.898438 18 16 18 L 17 18 C 18.210938 18 19.179688 19.078125 18.96875 20.339844 C 18.808594 21.320312 17.890625 22 16.890625 22 L 8 22 L 8 18 C 8 12.480469 12.480469 8 18 8 L 20.890625 8 C 22.339844 8 23.671875 8.980469 23.941406 10.410156 C 24.308594 12.320312 22.851562 14 21 14 Z M 21 14 "/>
<path style=" stroke:none;fill-rule:nonzero;fill:url(#linear3);" d="M 49 27.5 C 49 32.195312 45.195312 36 40.5 36 C 35.804688 36 32 32.195312 32 27.5 C 32 22.804688 35.804688 19 40.5 19 C 45.195312 19 49 22.804688 49 27.5 Z M 49 27.5 "/>
<path style=" stroke:none;fill-rule:nonzero;fill:url(#linear4);" d="M 38 29 C 37.242188 29 36.511719 29.113281 35.816406 29.308594 C 35.039062 25.703125 31.839844 23 28 23 C 23.582031 23 20 26.582031 20 31 C 20 31.027344 20.003906 31.050781 20.003906 31.078125 C 16.609375 31.5625 14 34.472656 14 38 C 14 41.867188 17.132812 45 21 45 L 38 45 C 42.417969 45 46 41.417969 46 37 C 46 32.582031 42.417969 29 38 29 Z M 38 29 "/>
</g>
</svg>
